<?xml version="1.0" encoding="UTF-8"?>
<svg version="1.1" xmlns="http://www.w3.org/2000/svg" width="512" height="512">
<path d="M0 0 C5.94424734 3.59211506 10.30786011 8.97663161 12.5625 15.5 C12.82751465 17.94754028 12.82751465 17.94754028 12.84960938 20.53955078 C12.86302368 21.51892609 12.87643799 22.49830139 12.89025879 23.50735474 C12.89817444 25.08539383 12.89817444 25.08539383 12.90625 26.6953125 C12.9208728 27.7973703 12.93549561 28.8994281 12.95056152 30.03488159 C12.99699868 33.56488372 13.03115718 37.09483363 13.0625 40.625 C13.17004244 59.40839375 13.17004244 59.40839375 14.4609375 78.13671875 C14.53646851 78.86670074 14.61199951 79.59668274 14.68981934 80.3487854 C16.87339866 98.97034772 24.95922068 115.93418128 36.5625 130.5 C38.69979475 125.825414 40.1830722 121.50930852 41.1875 116.4375 C41.42726563 115.27089844 41.66703125 114.10429688 41.9140625 112.90234375 C43.77372943 101.63717207 43.7052525 90.14211496 43.73116493 78.75788879 C43.73846337 76.21786794 43.75421653 73.67802595 43.77250671 71.13806152 C43.82441557 63.92832588 43.87303768 56.71870846 43.88842773 49.50878906 C43.89851395 45.07040799 43.9278237 40.63251049 43.96974754 36.19432068 C43.98202137 34.51350051 43.98718543 32.83261215 43.98494911 31.15174866 C43.98259264 28.80701794 44.00477587 26.46368236 44.0324707 24.11914062 C44.02256859 23.09045364 44.02256859 23.09045364 44.01246643 22.04098511 C44.12348385 16.30368004 46.39161163 12.99312962 50.0625 8.77734375 C62.46466228 -2.30062933 78.04794806 -2.16990068 93.70703125 -1.68359375 C104.21871298 -1.00774007 114.01634123 3.24852941 121 11.1875 C124.24555338 15.17590483 124.69322341 17.50720721 124.73608398 22.69946289 C124.74957382 24.0058522 124.76306366 25.31224152 124.77696228 26.65821838 C124.78202223 27.36011354 124.78708218 28.06200871 124.79229546 28.78517342 C124.80876328 30.99541006 124.83201603 33.20548058 124.85719299 35.41563416 C124.92771791 41.70188992 124.98733237 47.98822263 125.03930664 54.2746582 C125.0715954 58.12207591 125.11300918 61.96931653 125.15950203 65.81658745 C125.17526119 67.26782381 125.18769871 68.71910102 125.19640923 70.1703968 C125.27709018 83.44880295 125.36966509 97.60859281 130.375 110.0625 C130.63490723 110.71814941 130.89481445 111.37379883 131.16259766 112.04931641 C133.15100742 116.91323537 135.61702204 121.16841476 138.5625 125.5 C138.5625 126.16 138.5625 126.82 138.5625 127.5 C139.09875 127.56316406 139.635 127.62632812 140.1875 127.69140625 C146.08397573 128.61273058 151.30480644 130.45076737 156.75 132.8125 C157.41451172 133.09617432 158.07902344 133.37984863 158.76367188 133.67211914 C163.47998139 135.77911988 167.43750649 138.39154185 171.5625 141.5 C171.8925 136.55 172.2225 131.6 172.5625 126.5 C177.8425 126.5 183.1225 126.5 188.5625 126.5 C188.5625 137.06 188.5625 147.62 188.5625 158.5 C199.1225 158.5 209.6825 158.5 220.5625 158.5 C220.5625 163.78 220.5625 169.06 220.5625 174.5 C213.3025 174.5 206.0425 174.5 198.5625 174.5 C200.15778405 179.16804145 200.15778405 179.16804145 201.76342773 183.83251953 C201.96395752 184.42661621 202.1644873 185.02071289 202.37109375 185.6328125 C202.67744751 186.52830811 202.67744751 186.52830811 202.98999023 187.44189453 C204.57050303 193.12365268 204.71097135 198.64923999 204.70776367 204.49609375 C204.71280159 205.82429893 204.71280159 205.82429893 204.71794128 207.17933655 C204.72741704 210.09873877 204.72939315 213.01808336 204.73046875 215.9375 C204.73368525 217.98046898 204.73704961 220.02343774 204.74055481 222.06640625 C204.74653878 226.35010308 204.74839562 230.63377976 204.74780273 234.91748047 C204.74770152 240.37302469 204.76131519 245.82843759 204.77857494 251.28395081 C204.78976748 255.50678078 204.79171968 259.72957982 204.79119301 263.9524231 C204.7923637 265.96160329 204.79673358 267.97078453 204.80452538 269.97994995 C204.8434526 281.06065592 204.46945943 291.55612188 202.5625 302.5 C210.8125 302.5 219.0625 302.5 227.5625 302.5 C231.49175793 317.51676793 234.65650345 332.69266448 237.86346436 347.87591553 C238.61909199 351.4502797 239.37806208 355.023934 240.13671875 358.59765625 C241.61517973 365.56442797 243.09003923 372.5319574 244.5625 379.5 C248.46227585 365.74741042 251.51910279 351.79750855 254.6593616 337.85666156 C255.44365266 334.37784539 256.23130442 330.89979013 257.01856995 327.42164612 C258.50933195 320.83316962 259.99719705 314.24404261 261.48396212 307.65466315 C263.15835005 300.23433348 264.83582168 292.81470213 266.51363456 285.39514625 C268.86003835 275.01895702 271.20589526 264.64264558 273.5477457 254.26542759 C274.10471474 251.79997457 274.66277629 249.33476806 275.22203732 246.86983395 C276.51079181 241.18655748 277.78430306 235.50096432 279.01907349 229.80569458 C279.24588082 228.77221673 279.47268816 227.73873888 279.70636845 226.67394352 C280.12779687 224.75109336 280.54269194 222.82679526 280.94987392 220.90087795 C281.22648405 219.64749425 281.22648405 219.64749425 281.50868225 218.36878967 C281.66509217 217.64087754 281.82150209 216.91296541 281.98265171 216.16299534 C282.5625 214.5 282.5625 214.5 284.5625 213.5 C295.7825 252.77 307.0025 292.04 318.5625 332.5 C325.3625 323.43333333 329.49407925 312.6368415 334.5625 302.5 C360.3025 302.5 386.0425 302.5 412.5625 302.5 C412.5625 307.78 412.5625 313.06 412.5625 318.5 C390.4525 318.5 368.3425 318.5 345.5625 318.5 C344.9025 320.48 344.2425 322.46 343.5625 324.5 C342.66636012 326.45762704 341.73146426 328.39782792 340.76513672 330.32177734 C340.20470673 331.44248627 339.64427673 332.56319519 339.06686401 333.71786499 C338.45872486 334.9239327 337.85049731 336.12995585 337.2421875 337.3359375 C336.61692879 338.58272032 335.99202574 339.82968156 335.36746216 341.07681274 C333.73032686 344.34348219 332.08839923 347.60771937 330.44543457 350.87145996 C328.76669054 354.20841355 327.09252775 357.54766364 325.41796875 360.88671875 C322.13727167 367.42672512 318.85150429 373.96416672 315.5625 380.5 C314.9025 380.5 314.2425 380.5 313.5625 380.5 C298.155208 327.76824892 298.155208 327.76824892 291.77359009 305.3117981 C291.30125868 303.65167511 290.82712996 301.99206239 290.35116577 300.33297729 C289.69765267 298.05285257 289.05091916 295.77091968 288.40625 293.48828125 C287.86774414 291.59396362 287.86774414 291.59396362 287.31835938 289.66137695 C286.5625 286.5 286.5625 286.5 286.5625 282.5 C285.9025 282.5 285.2425 282.5 284.5625 282.5 C284.45846359 283.70547989 284.35442719 284.91095978 284.24723816 286.15296936 C283.52971347 292.56012578 282.04922285 298.77610706 280.60668945 305.05249023 C280.30058533 306.4006808 279.99491833 307.74897068 279.68965149 309.09735107 C278.86320945 312.74203408 278.03066314 316.38529781 277.1969645 320.02832675 C276.31805309 323.87371642 275.44477585 327.72038541 274.57084656 331.56690979 C272.91040972 338.87120146 271.24485352 346.17431589 269.57748908 353.47702891 C267.70325827 361.68702464 265.83508718 369.89839524 263.96728957 378.10985649 C261.67886476 388.16954938 259.38860752 398.22882575 257.09553528 408.28746033 C256.93355685 408.99802792 256.77157843 409.70859552 256.60469157 410.44069546 C255.8166983 413.89613017 255.02739699 417.35125769 254.23540211 420.80577755 C252.74955682 427.28817206 251.27560424 433.7727809 249.8296814 440.26419067 C249.55671077 441.47788613 249.28374014 442.69158159 249.00249767 443.9420557 C248.49144632 446.2148016 247.98595004 448.48880637 247.48698139 450.7642355 C247.2618798 451.75933164 247.0367782 452.75442778 246.80485535 453.77967834 C246.51560322 455.08216569 246.51560322 455.08216569 246.22050762 456.41096592 C245.5625 458.5 245.5625 458.5 243.5625 460.5 C243.30464722 459.30429886 243.04679443 458.10859772 242.78112793 456.87666321 C240.31141103 445.42428799 237.84158675 433.97193593 235.37166595 422.51960468 C233.8557279 415.49060565 232.33986367 408.4615907 230.82408142 401.43255806 C230.08762586 398.01759461 229.35106644 394.60265358 228.61450195 391.18771362 C227.64510104 386.69312875 226.67624323 382.19842728 225.70776367 377.7036438 C223.50261988 367.47231451 221.29129987 357.24244264 219.05859375 347.01708984 C218.49630275 344.4367953 217.93420202 341.85645938 217.37214661 339.27611351 C216.85758903 336.91886694 216.33969218 334.56237078 215.82165527 332.20588684 C215.51700501 330.80811117 215.21251043 329.41030155 214.90820312 328.01245117 C214.64624146 326.81738449 214.38427979 325.62231781 214.11437988 324.39103699 C213.5625 321.5 213.5625 321.5 213.5625 318.5 C208.9425 318.5 204.3225 318.5 199.5625 318.5 C199.45035156 319.76457031 199.33820313 321.02914063 199.22265625 322.33203125 C198.61465193 327.75120019 197.38990613 332.92108358 196 338.1875 C195.73678955 339.18499268 195.4735791 340.18248535 195.20239258 341.21020508 C180.2690461 396.16474713 147.43618009 448.12268738 102.5625 483.5 C101.79035156 484.15097656 101.01820313 484.80195313 100.22265625 485.47265625 C92.28854935 492.04025616 85.26707624 494.8219388 75 495 C73.95585937 495.02791626 73.95585937 495.02791626 72.890625 495.05639648 C67.04719203 494.98582031 62.70702079 493.15013082 57.5625 490.5 C56.62494873 490.02240234 55.68739746 489.54480469 54.72143555 489.05273438 C29.73621126 476.10822147 6.89615787 462.04023928 -13.4375 442.5 C-14.03208008 441.93265137 -14.62666016 441.36530273 -15.23925781 440.78076172 C-52.31636544 405.22383463 -75.02407206 358.18740357 -82.4375 307.5 C-82.5398999 306.8409668 -82.6422998 306.18193359 -82.74780273 305.50292969 C-85.42387254 285.66202397 -85.8396772 261.58959685 -79.4375 242.5 C-79.22319336 241.85063477 -79.00888672 241.20126953 -78.78808594 240.53222656 C-70.65281716 216.74219022 -55.70526629 195.4480272 -35.4375 180.5 C-35.86417969 179.70722656 -36.29085937 178.91445312 -36.73046875 178.09765625 C-40.5557187 170.96677729 -44.32177759 163.80778581 -48.0402832 156.62060547 C-55.22478706 142.73716672 -62.65966681 129.00588201 -70.19238281 115.30908203 C-71.98696794 112.04185591 -73.77511224 108.77116785 -75.5625 105.5 C-76.3978125 103.98587524 -76.3978125 103.98587524 -77.25 102.44116211 C-82.25167156 93.27220853 -83.80032514 86.57103301 -83.8125 76.125 C-83.83699219 75.02671875 -83.86148438 73.9284375 -83.88671875 72.796875 C-83.91544769 64.81022968 -82.78573231 59.32084562 -77.47265625 53.2578125 C-76.82167969 52.71898437 -76.17070313 52.18015625 -75.5 51.625 C-74.52740234 50.79355469 -74.52740234 50.79355469 -73.53515625 49.9453125 C-67.03022276 45.46332853 -60.06963545 45.83294616 -52.4375 46.5 C-46.93902127 47.8278336 -43.85950739 50.96392318 -40.2109375 55.16015625 C-39.50114746 55.97234619 -38.79135742 56.78453613 -38.06005859 57.62133789 C-37.25689209 58.55127563 -37.25689209 58.55127563 -36.4375 59.5 C-36.4281543 58.20900391 -36.41880859 56.91800781 -36.40917969 55.58789062 C-36.36913439 50.77179184 -36.30333515 45.95632209 -36.22998047 41.140625 C-36.20185501 39.06128048 -36.18059879 36.98183071 -36.16650391 34.90234375 C-36.14495762 31.90310108 -36.09824724 28.90511255 -36.046875 25.90625 C-36.04564636 24.98509399 -36.04441772 24.06393799 -36.04315186 23.11486816 C-35.88386801 16.00387749 -34.20204482 10.65476884 -29.47265625 5.2578125 C-28.82167969 4.71898437 -28.17070313 4.18015625 -27.5 3.625 C-26.85160156 3.07070312 -26.20320313 2.51640625 -25.53515625 1.9453125 C-18.47077988 -2.92213491 -7.84396301 -3.47595223 0 0 Z M-16.75 17.3125 C-20.01017547 21.53865339 -19.57356686 25.82717143 -19.55102539 30.91870117 C-19.55117142 31.77745346 -19.55131744 32.63620575 -19.5514679 33.52098083 C-19.55077079 36.3616691 -19.54298783 39.20229193 -19.53515625 42.04296875 C-19.53329135 44.01166244 -19.53186779 45.98035659 -19.53086853 47.9490509 C-19.52704901 53.13253051 -19.51722352 58.31598214 -19.50616455 63.49945068 C-19.4959383 68.7880414 -19.4913683 74.07663663 -19.48632812 79.36523438 C-19.47560077 89.74350188 -19.4585311 100.12174862 -19.4375 110.5 C-24.7175 110.5 -29.9975 110.5 -35.4375 110.5 C-35.1590625 108.59154297 -35.1590625 108.59154297 -34.875 106.64453125 C-33.69485299 94.68020312 -35.53323352 87.47376606 -43.125 78 C-45.80263644 74.73895285 -48.56202333 71.58748998 -51.4375 68.5 C-51.941604 67.94578369 -52.44570801 67.39156738 -52.96508789 66.82055664 C-55.22024724 64.42908017 -56.173431 63.54850247 -59.5 62.9375 C-63.07415177 63.62191204 -64.23753128 64.64818869 -66.4375 67.5 C-67.37384756 70.30904268 -67.63185154 72.20345572 -67.6875 75.125 C-67.71328125 75.92164063 -67.7390625 76.71828125 -67.765625 77.5390625 C-66.63000269 87.78670194 -60.804094 96.77124168 -56 105.6875 C-55.18015488 107.22108207 -54.3608234 108.75493883 -53.54199219 110.2890625 C-48.21945872 120.24652186 -42.83763886 130.17182719 -37.40625 140.0703125 C-33.79814398 146.65286956 -30.24330058 153.26410168 -26.6875 159.875 C-25.75502441 161.6084668 -25.75502441 161.6084668 -24.80371094 163.37695312 C-23.34783063 166.08437965 -21.8923877 168.79203998 -20.4375 171.5 C-19.32375 171.04109375 -18.21 170.5821875 -17.0625 170.109375 C-9.45772996 167.03105403 -1.91801135 164.13578025 6.0625 162.1875 C7.0512915 161.94471313 7.0512915 161.94471313 8.06005859 161.69702148 C10.89193896 161.03038096 13.68166326 160.4854528 16.5703125 160.1328125 C21.6351673 159.52859181 21.6351673 159.52859181 25.5 156.37890625 C27.00986907 154.13856812 28.34316677 151.90892662 29.5625 149.5 C28.14606548 146.29700736 26.42122218 144.13915798 24 141.625 C6.0085946 121.64541393 -2.70011718 95.08368643 -2.74609375 68.51171875 C-2.76481213 66.52245419 -2.78354738 64.53318961 -2.80327702 62.54393482 C-2.84832406 57.69043492 -2.87237052 52.83680731 -2.89379883 47.9831543 C-2.90662609 45.24033703 -2.92732412 42.49777735 -2.95606995 39.75508118 C-2.98223485 37.18534475 -2.99620602 34.61544762 -2.9964447 32.045578 C-2.99634628 23.77319872 -2.99634628 23.77319872 -6.4375 16.5 C-10.23281479 14.60234261 -13.41071965 14.69522621 -16.75 17.3125 Z M63.5625 19.5 C62.27004616 21.53991151 62.27004616 21.53991151 61.5625 23.5 C62.8309375 24.428125 62.8309375 24.428125 64.125 25.375 C64.60066406 25.72304688 65.07632813 26.07109375 65.56640625 26.4296875 C71.53869535 29.63204996 77.7043635 29.8875083 84.3125 29.875 C85.19341309 29.87338867 86.07432617 29.87177734 86.98193359 29.87011719 C93.51083471 29.74745226 99.97984505 29.22176997 105.5625 25.5 C106.85495384 23.46008849 106.85495384 23.46008849 107.5625 21.5 C106.716875 20.88125 105.87125 20.2625 105 19.625 C104.52433594 19.27695312 104.04867187 18.92890625 103.55859375 18.5703125 C97.58630465 15.36795004 91.4206365 15.1124917 84.8125 15.125 C83.49113037 15.12741699 83.49113037 15.12741699 82.14306641 15.12988281 C75.61416529 15.25254774 69.14515495 15.77823003 63.5625 19.5 Z M60.5625 42.5 C60.55885437 43.30971756 60.55520874 44.11943512 60.55145264 44.95368958 C60.51320968 52.6740031 60.45595779 60.39385318 60.37859726 68.11386585 C60.33948489 72.08056337 60.30712271 76.04705091 60.29150391 80.01391602 C60.1801258 106.35504806 58.33917533 131.07609522 45.4453125 154.71484375 C44.41473786 156.46687381 44.41473786 156.46687381 44.5625 158.5 C48.74781136 159.22311662 52.38780595 159.36221802 56.5625 158.5 C59.10356627 156.56446442 61.15296865 154.50104811 63.27905273 152.12695312 C77.57825562 136.16741025 97.67698428 128.84121763 118.5625 126.5 C118.16417969 125.57960938 117.76585937 124.65921875 117.35546875 123.7109375 C116.81967723 122.43255773 116.28455828 121.15389594 115.75 119.875 C115.48896484 119.276875 115.22792969 118.67875 114.95898438 118.0625 C108.4301698 102.26438079 109.024246 85.92644941 108.875 69.125 C108.8417761 66.53904572 108.80728188 63.95310743 108.77148438 61.3671875 C108.68716336 55.07823466 108.61857422 48.78926483 108.5625 42.5 C107.76585937 42.71194 106.96921875 42.92388 106.1484375 43.14224243 C105.08882812 43.41708466 104.02921875 43.69192688 102.9375 43.97509766 C101.89335937 44.24891266 100.84921875 44.52272766 99.7734375 44.80484009 C94.69458063 45.90439986 89.73894022 45.93566141 84.5625 45.875 C83.5725 45.88660156 82.5825 45.89820313 81.5625 45.91015625 C76.19909531 45.88920545 71.38449459 45.33795535 66.1875 43.97509766 C65.12789062 43.70025543 64.06828125 43.42541321 62.9765625 43.14224243 C62.17992187 42.93030243 61.38328125 42.71836243 60.5625 42.5 Z M79.4375 159.39453125 C76.74427544 162.03395064 74.13762496 164.74556267 71.5625 167.5 C76.63631098 181.31912337 87.35228345 195.11782835 98.5625 204.5 C99.2225 204.5 99.8825 204.5 100.5625 204.5 C100.5625 194.6 100.5625 184.7 100.5625 174.5 C105.8425 174.5 111.1225 174.5 116.5625 174.5 C116.53929687 175.9025 116.51609375 177.305 116.4921875 178.75 C115.71233376 199.74200543 115.71233376 199.74200543 121.5625 219.5 C123.93912558 221.36330367 123.93912558 221.36330367 126.6875 222.4375 C127.57695312 222.83839844 128.46640625 223.23929687 129.3828125 223.65234375 C131.32804932 224.56040771 131.32804932 224.56040771 132.5625 224.5 C132.5625 213.28 132.5625 202.06 132.5625 190.5 C137.8425 190.5 143.1225 190.5 148.5625 190.5 C148.53929687 191.9025 148.51609375 193.305 148.4921875 194.75 C147.12398822 213.07408389 147.12398822 213.07408389 151.67480469 230.04736328 C154.40581554 232.14895596 157.19136167 232.8121561 160.49609375 233.76171875 C161.17043961 233.95723831 161.84478546 234.15275787 162.53956604 234.35420227 C163.96294424 234.76465501 165.38770741 235.17033118 166.8137207 235.5715332 C168.99193505 236.18522776 171.16501604 236.81495543 173.33789062 237.44726562 C180.82641892 239.70804929 180.82641892 239.70804929 188.5625 240.5 C189.86036152 210.3317366 189.86036152 210.3317366 182.5625 181.5 C182.16417969 180.61054688 181.76585937 179.72109375 181.35546875 178.8046875 C172.94008768 161.7799108 157.95319356 151.09661584 140.4140625 144.71875 C119.6775299 138.76902757 95.05935351 144.56627559 79.4375 159.39453125 Z M36.5625 174.5 C36.48 177.490625 36.3975 180.48125 36.3125 183.5625 C35.37476487 204.64868301 28.02609567 222.0970076 12.5625 236.5 C5.31022289 242.72074858 -2.55510965 247.03132932 -11.4375 250.5 C-12.31148437 250.84160156 -13.18546875 251.18320312 -14.0859375 251.53515625 C-27.51108832 255.7674252 -44.70135397 255.07490896 -58.14453125 251.15625 C-60.52069506 250.36242313 -60.52069506 250.36242313 -63.4375 250.5 C-66.19760423 260.28706673 -66.96349769 269.64305188 -66.875 279.75 C-66.87195862 280.48955933 -66.86891724 281.22911865 -66.86578369 281.99108887 C-66.78258432 295.76520729 -65.44728803 309.03321662 -62.4375 322.5 C-62.12401611 323.90548096 -62.12401611 323.90548096 -61.80419922 325.33935547 C-52.69717747 364.63939466 -32.08190162 398.57908922 -4.4375 427.5 C-3.80199219 428.17675781 -3.16648438 428.85351562 -2.51171875 429.55078125 C11.70718767 444.31265307 29.7879004 455.55680486 47.5625 465.5 C48.53968994 466.04841553 48.53968994 466.04841553 49.53662109 466.60791016 C55.7484466 470.65067436 55.7484466 470.65067436 62.5625 472.5 C60.66688695 465.28898622 58.54657345 458.2007405 56.1640625 451.13671875 C55.51257753 449.17657958 54.86155109 447.21628795 54.2109375 445.25585938 C53.20653849 442.23853002 52.19923062 439.22230674 51.18359375 436.20874023 C46.44552989 422.12577443 42.40784685 408.09236241 39.5625 393.5 C39.42598022 392.82066406 39.28946045 392.14132812 39.14880371 391.44140625 C37.61726686 383.53299502 37.54100257 375.97919093 37.9296875 367.98046875 C37.98820892 366.60171066 37.98820892 366.60171066 38.0479126 365.19509888 C38.37876487 357.45034666 38.37876487 357.45034666 38.65966797 353.80200195 C39.81748612 343.17937197 39.81748612 343.17937197 36.06774902 333.6854248 C32.31084117 330.52144123 28.13086695 328.43126639 23.65472412 326.47003174 C20.27351729 324.9023804 17.19326156 322.88528787 14.0625 320.875 C12.22952735 319.74941243 10.39634217 318.62417037 8.5625 317.5 C9.32046875 316.23542969 9.32046875 316.23542969 10.09375 314.9453125 C10.7434375 313.84960938 11.393125 312.75390625 12.0625 311.625 C12.7121875 310.53445313 13.361875 309.44390625 14.03125 308.3203125 C15.72154853 305.74192328 15.72154853 305.74192328 15.5625 303.5 C22.6711309 306.83768674 29.26571894 310.70924699 35.875 314.92578125 C38.33102023 316.6684766 38.33102023 316.6684766 40.5625 316.5 C40.78389648 315.71463867 41.00529297 314.92927734 41.23339844 314.12011719 C42.07360262 311.14486761 42.91636492 308.17035677 43.76074219 305.19628906 C44.29813517 303.30067098 44.83270039 301.40425197 45.3671875 299.5078125 C47.56767243 291.76536553 49.94101825 284.11041203 52.5625 276.5 C55.26432292 277.24869792 57.96614583 277.99739583 60.66796875 278.74609375 C63.28992081 279.42900434 65.90444287 279.98092473 68.5625 280.5 C68.28051758 281.3343457 67.99853516 282.16869141 67.70800781 283.02832031 C59.65197198 306.87833245 59.65197198 306.87833245 54.5625 331.5 C54.3867041 332.72082275 54.2109082 333.94164551 54.02978516 335.19946289 C53.48818216 339.60254355 53.43506453 343.94362034 53.46484375 348.375 C53.4662587 349.18493408 53.46767365 349.99486816 53.46913147 350.8293457 C53.47467617 353.38626994 53.48721793 355.94310276 53.5 358.5 C53.50502216 360.24609247 53.50958381 361.99218634 53.51367188 363.73828125 C53.5246274 367.99222209 53.54185306 372.24609561 53.5625 376.5 C65.30941629 370.9840567 76.97616546 365.34631559 88.5625 359.5 C91.2025 364.45 93.8425 369.4 96.5625 374.5 C93.5925 375.49 93.5925 375.49 90.5625 376.5 C89.28071561 377.06429304 88.01101194 377.65751654 86.76025391 378.28759766 C86.08000153 378.62779938 85.39974915 378.9680011 84.69888306 379.31851196 C83.62977188 379.86080948 83.62977188 379.86080948 82.5390625 380.4140625 C81.79288666 380.78856537 81.04671082 381.16306824 80.27792358 381.54891968 C77.91253203 382.73717966 75.5499953 383.93099382 73.1875 385.125 C71.57700873 385.93526526 69.96633349 386.74516498 68.35546875 387.5546875 C64.42233766 389.53223454 60.49175592 391.51476516 56.5625 393.5 C57.69687459 401.50969723 59.43328745 408.99085594 62.01171875 416.65234375 C62.51527641 418.18357628 62.51527641 418.18357628 63.02900696 419.7457428 C64.09447645 422.97910576 65.17198367 426.20830148 66.25 429.4375 C66.95327371 431.56549107 67.655753 433.69374485 68.35742188 435.82226562 C70.41404003 442.05210702 72.4867645 448.27650704 74.5625 454.5 C75.25609798 456.58216875 75.94962107 458.66436244 76.64306641 460.74658203 C78.28140555 465.66487992 79.92143064 470.58261246 81.5625 475.5 C89.50763936 475.5 97.9730146 464.61325122 103.5625 459.5 C104.49707031 458.66984375 105.43164062 457.8396875 106.39453125 456.984375 C111.87331705 452.0976878 116.86849825 447.13478269 121.5625 441.5 C122.35914063 440.59121094 123.15578125 439.68242187 123.9765625 438.74609375 C164.09058674 392.81406122 186.58431521 333.45799858 188.1640625 272.6171875 C188.20428297 271.23623059 188.24505218 269.85528954 188.28637695 268.47436523 C188.38377668 265.14969105 188.47574083 261.82496591 188.5625 258.5 C187.87362198 258.30256699 187.18474396 258.10513397 186.47499084 257.90171814 C179.8993427 256.01523648 173.32651102 254.11920738 166.75652409 252.21311092 C163.38086126 251.23410296 160.00430474 250.25848129 156.62524414 249.29125977 C130.9451246 241.93570552 107.98440582 234.27400879 87.5625 216.5 C86.88058594 215.96246094 86.19867188 215.42492187 85.49609375 214.87109375 C72.56724356 204.44965693 63.667185 188.68319876 55.5625 174.5 C49.2925 174.5 43.0225 174.5 36.5625 174.5 Z M-40.59375 208.3359375 C-46.18261955 214.43455302 -56.4375 225.90213573 -56.4375 234.5 C-39.79288732 239.5313563 -24.31029402 239.65711906 -8.4375 231.5 C4.95248101 223.42565909 14.38134705 211.69620715 18.5625 196.5 C19.89401224 189.82141494 20.67552691 183.31244018 20.5625 176.5 C-2.31445021 175.46795713 -25.67567154 192.6121022 -40.59375 208.3359375 Z " fill="#5371E8" transform="translate(91.4375,9.5)"/>
<path d="M0 0 C15.84 0 31.68 0 48 0 C48 36.96 48 73.92 48 112 C-10.08 112 -68.16 112 -128 112 C-128 96.16 -128 80.32 -128 64 C-112.16 64 -96.32 64 -80 64 C-80 74.56 -80 85.12 -80 96 C-74.72 96 -69.44 96 -64 96 C-64 74.88 -64 53.76 -64 32 C-48.16 32 -32.32 32 -16 32 C-16 53.12 -16 74.24 -16 96 C-10.72 96 -5.44 96 0 96 C0 64.32 0 32.64 0 0 Z M16 16 C16 42.4 16 68.8 16 96 C21.28 96 26.56 96 32 96 C32 69.6 32 43.2 32 16 C26.72 16 21.44 16 16 16 Z M-48 48 C-48 63.84 -48 79.68 -48 96 C-42.72 96 -37.44 96 -32 96 C-32 80.16 -32 64.32 -32 48 C-37.28 48 -42.56 48 -48 48 Z M-112 80 C-112 85.28 -112 90.56 -112 96 C-106.72 96 -101.44 96 -96 96 C-96 90.72 -96 85.44 -96 80 C-101.28 80 -106.56 80 -112 80 Z " fill="#2996DC" transform="translate(424,40)"/>
<path d="M0 0 C36.96 0 73.92 0 112 0 C112 5.28 112 10.56 112 16 C75.04 16 38.08 16 0 16 C0 10.72 0 5.44 0 0 Z " fill="#9339FB" transform="translate(392,456)"/>
<path d="M0 0 C26.4 0 52.8 0 80 0 C80 5.28 80 10.56 80 16 C53.6 16 27.2 16 0 16 C0 10.72 0 5.44 0 0 Z " fill="#9C31FE" transform="translate(392,488)"/>
<path d="M0 0 C5.28 0 10.56 0 16 0 C16 15.84 16 31.68 16 48 C0.16 48 -15.68 48 -32 48 C-32 42.72 -32 37.44 -32 32 C-21.44 32 -10.88 32 0 32 C0 21.44 0 10.88 0 0 Z " fill="#3A87E1" transform="translate(488,136)"/>
<path d="M0 0 C15.84 0 31.68 0 48 0 C48 15.84 48 31.68 48 48 C42.72 48 37.44 48 32 48 C32 37.44 32 26.88 32 16 C21.44 16 10.88 16 0 16 C0 10.72 0 5.44 0 0 Z " fill="#10ACD4" transform="translate(456,8)"/>
<path d="M0 0 C15.84 0 31.68 0 48 0 C48 5.28 48 10.56 48 16 C37.44 16 26.88 16 16 16 C16 26.56 16 37.12 16 48 C10.72 48 5.44 48 0 48 C0 32.16 0 16.32 0 0 Z " fill="#10ACD4" transform="translate(264,8)"/>
<path d="M0 0 C21.12 0 42.24 0 64 0 C64 5.28 64 10.56 64 16 C42.88 16 21.76 16 0 16 C0 10.72 0 5.44 0 0 Z " fill="#8941F8" transform="translate(440,424)"/>
<path d="M0 0 C10.56 0 21.12 0 32 0 C32 5.28 32 10.56 32 16 C21.44 16 10.88 16 0 16 C0 10.72 0 5.44 0 0 Z " fill="#8941F8" transform="translate(392,424)"/>
<path d="M0 0 C5.28 0 10.56 0 16 0 C16 5.28 16 10.56 16 16 C10.72 16 5.44 16 0 16 C0 10.72 0 5.44 0 0 Z " fill="#9C31FE" transform="translate(488,488)"/>
</svg>
