<?xml version="1.0" standalone="no"?> <!DOCTYPE svg PUBLIC "-//W3C//DTD SVG 20010904//EN" "http://www.w3.org/TR/2001/REC-SVG-20010904/DTD/svg10.dtd"> <svg version="1.0" xmlns="http://www.w3.org/2000/svg" width="577.000000pt" height="157.000000pt" viewBox="0 0 577.000000 157.000000" preserveAspectRatio="xMidYMid meet"> <g transform="translate(0.000000,157.000000) scale(0.100000,-0.100000)" fill="#002a64" stroke="none"> <path d="M700 1487 c-30 -7 -59 -15 -65 -18 -5 -3 -23 -9 -40 -13 -46 -11 -153 -75 -198 -118 -22 -21 -43 -38 -46 -38 -14 -1 -105 -129 -135 -189 -62 -124 -71 -162 -71 -316 0 -150 14 -214 69 -322 21 -42 87 -135 121 -169 35 -36 141 -104 162 -104 22 0 21 3 -20 38 -70 59 -137 150 -183 247 -127 267 -81 543 128 774 21 22 40 41 43 41 6 0 67 41 75 51 3 3 40 20 82 37 186 74 374 61 554 -38 29 -16 62 -38 74 -50 12 -12 28 -19 37 -16 8 3 20 6 26 6 12 0 -33 44 -88 85 -52 39 -126 76 -138 69 -7 -4 -9 -3 -4 1 4 5 -19 17 -50 27 -72 24 -255 32 -333 15z"/> <path d="M1327 1203 c-4 -3 -7 -28 -7 -54 l0 -48 -52 -3 -53 -3 0 -50 0 -50 50 -5 50 -5 3 -53 3 -53 52 3 52 3 3 53 3 52 50 0 49 0 0 55 0 55 -50 0 -50 0 0 43 c0 24 -5 48 -12 55 -13 13 -80 17 -91 5z"/> <path d="M790 1125 c-8 -2 -33 -7 -54 -10 l-40 -7 68 -64 c37 -35 71 -64 75 -64 5 0 39 29 77 64 57 54 65 64 48 69 -26 8 -155 16 -174 12z"/> <path d="M3505 1095 c-5 -2 -29 -9 -52 -15 -46 -12 -55 -25 -23 -35 18 -6 20 -15 20 -106 l0 -100 -30 16 c-42 22 -132 19 -180 -5 -100 -51 -144 -204 -90 -315 31 -63 70 -88 147 -93 53 -4 69 0 109 22 25 14 48 26 50 26 2 0 4 -11 4 -25 0 -29 18 -32 84 -13 49 14 69 28 38 28 -12 0 -26 9 -32 19 -6 12 -10 129 -10 310 0 296 0 298 -35 286z m-105 -261 c48 -32 50 -41 50 -181 l0 -133 -32 -21 c-74 -46 -163 -2 -189 93 -15 55 -6 157 16 195 35 59 105 80 155 47z"/> <path d="M595 1045 c-19 -20 -35 -40 -35 -45 0 -5 -35 -28 -77 -52 -99 -54 -140 -91 -153 -136 -13 -46 -28 -259 -19 -274 4 -5 9 25 13 68 15 177 19 204 36 232 18 29 156 119 166 109 3 -3 -2 -29 -10 -58 -9 -30 -16 -90 -16 -140 0 -80 -2 -90 -24 -112 -34 -34 -40 -77 -27 -198 12 -119 29 -152 80 -157 27 -3 32 0 29 15 -4 18 -10 20 -41 8 -13 -6 -21 1 -33 30 -19 46 -21 218 -3 258 14 31 48 44 76 28 41 -22 108 -227 90 -274 -4 -10 -17 -17 -32 -17 -19 0 -26 -5 -23 -17 5 -26 22 -26 51 1 31 29 33 54 11 146 -9 36 -18 76 -20 89 -9 43 -35 82 -70 103 -33 19 -34 22 -34 83 0 74 16 157 38 200 l15 30 26 -79 c15 -43 35 -84 46 -92 17 -13 17 -15 2 -32 -9 -10 -17 -22 -17 -25 0 -4 43 -72 95 -150 l95 -143 0 -68 c0 -42 4 -65 10 -61 6 3 10 34 10 68 0 61 1 64 95 207 52 80 95 149 95 153 0 4 -7 10 -15 13 -21 8 -19 31 4 44 12 6 22 26 26 50 4 22 10 42 15 45 14 8 30 -90 30 -178 0 -94 -7 -127 -25 -127 -20 0 -55 -49 -55 -77 0 -33 42 -73 78 -73 65 0 100 91 51 134 -23 20 -24 26 -21 119 4 86 -5 169 -24 247 -6 21 -4 23 7 13 18 -18 34 -16 19 2 -7 8 -19 15 -26 15 -8 0 -24 17 -38 38 -13 20 -31 43 -40 51 -14 12 -16 10 -16 -12 0 -14 5 -29 10 -32 6 -3 18 -22 28 -42 17 -32 17 -40 5 -91 -10 -38 -23 -64 -41 -79 -25 -21 -25 -23 -9 -41 9 -10 17 -22 17 -25 0 -4 -17 -33 -37 -64 -21 -32 -40 -62 -43 -68 -14 -28 -82 -126 -85 -123 -2 2 6 40 19 84 22 78 22 84 9 184 -11 75 -12 110 -4 127 9 19 7 30 -12 58 -12 19 -24 35 -27 35 -3 0 -16 -16 -29 -35 -19 -28 -22 -40 -14 -58 6 -15 5 -56 -4 -126 -13 -102 -13 -106 11 -185 14 -44 24 -82 22 -84 -2 -1 -42 55 -89 125 l-85 128 21 23 c19 20 20 25 7 32 -8 5 -20 13 -26 17 -6 4 -22 46 -37 92 -20 62 -24 88 -16 102 5 10 14 19 18 19 5 0 14 14 20 30 13 40 0 38 -44 -5z m537 -492 c33 -30 12 -83 -34 -83 -32 0 -48 18 -48 52 0 44 48 62 82 31z"/> <path d="M1074 536 c-10 -26 4 -48 28 -44 17 2 23 10 23 28 0 18 -6 26 -23 28 -13 2 -25 -3 -28 -12z"/> <path d="M1820 1070 c0 -5 7 -10 15 -10 8 0 25 -10 36 -21 21 -21 22 -26 15 -228 -10 -299 -13 -320 -47 -340 -16 -9 -29 -19 -29 -23 0 -5 36 -8 80 -8 47 0 80 4 80 10 0 6 -6 10 -13 10 -8 0 -21 8 -30 18 -14 16 -17 42 -16 168 1 82 4 189 8 239 l6 90 121 -265 c66 -146 124 -265 128 -265 6 0 200 425 228 498 5 15 13 27 17 27 13 0 23 -457 11 -480 -6 -11 -22 -23 -35 -26 -14 -3 -25 -10 -25 -15 0 -13 237 -11 245 1 3 6 -2 10 -13 10 -10 0 -27 9 -38 21 -17 19 -20 49 -30 268 -13 264 -10 287 34 306 40 18 23 25 -56 25 l-79 0 -85 -187 c-47 -104 -96 -212 -108 -241 -13 -29 -27 -51 -32 -50 -5 2 -39 71 -77 153 -37 83 -86 189 -109 238 l-41 87 -80 0 c-47 0 -81 -4 -81 -10z"/> <path d="M3692 1060 c-39 -37 -17 -100 35 -100 49 0 72 76 31 104 -29 21 -40 20 -66 -4z"/> <path d="M1160 930 c0 -6 8 -14 18 -18 37 -16 78 -46 96 -70 16 -20 22 -52 28 -151 5 -69 13 -146 18 -171 l9 -45 -4 46 c-2 26 -7 102 -11 169 -6 100 -11 127 -28 153 -23 33 -126 105 -126 87z"/> <path d="M2777 849 c-49 -26 -92 -86 -107 -150 -24 -98 22 -204 104 -243 48 -23 147 -21 196 4 38 20 88 76 76 87 -3 4 -16 -3 -29 -14 -52 -48 -128 -58 -184 -23 -39 23 -73 86 -73 135 l0 35 145 0 145 0 0 29 c0 48 -28 100 -72 131 -35 26 -50 30 -102 30 -41 -1 -73 -7 -99 -21z m141 -21 c24 -27 42 -70 42 -104 0 -24 -1 -24 -100 -24 l-100 0 0 25 c0 38 25 90 51 109 34 23 81 20 107 -6z"/> <path d="M3687 853 l-48 -15 25 -23 c26 -24 26 -27 26 -162 0 -156 -4 -180 -31 -188 -44 -14 -13 -25 70 -25 85 0 125 11 81 23 -33 8 -40 50 -40 233 0 196 6 185 -83 157z"/> <path d="M3984 851 c-68 -31 -123 -120 -124 -201 0 -80 45 -162 111 -196 38 -19 142 -18 185 2 40 19 84 68 84 92 -1 15 -3 14 -18 -3 -34 -41 -65 -55 -119 -55 -47 0 -56 4 -91 38 -103 98 -63 322 58 322 38 0 68 -26 80 -69 11 -40 29 -55 55 -45 43 17 34 69 -18 108 -40 29 -147 33 -203 7z"/> <path d="M4389 847 c-49 -26 -71 -66 -53 -95 25 -39 74 -20 74 29 0 54 60 86 110 59 21 -11 40 -60 40 -106 0 -31 -3 -34 -42 -45 -173 -46 -230 -98 -206 -184 12 -46 44 -65 109 -65 47 0 63 5 97 30 27 19 42 25 42 17 0 -41 75 -61 118 -31 25 17 30 39 7 30 -8 -3 -21 2 -30 10 -12 12 -15 43 -15 152 -1 149 -6 170 -56 203 -43 28 -137 26 -195 -4z m155 -328 c-43 -47 -125 -44 -144 7 -22 56 16 105 102 135 l53 18 3 -71 c2 -55 -1 -75 -14 -89z"/> <path d="M4786 853 c-44 -13 -47 -16 -30 -26 10 -6 22 -15 26 -21 4 -6 8 -79 8 -163 0 -125 -3 -154 -16 -167 -8 -9 -20 -16 -25 -16 -5 0 -9 -4 -9 -10 0 -6 38 -10 94 -10 53 0 98 4 101 10 3 6 -3 10 -14 10 -33 0 -41 32 -41 160 0 90 4 129 16 151 22 43 51 51 95 26 31 -18 39 -19 53 -8 19 16 21 52 4 69 -7 7 -29 12 -50 12 -29 0 -45 -8 -78 -38 l-40 -39 0 39 c0 44 -10 46 -94 21z"/> <path d="M5207 849 c-49 -26 -93 -88 -106 -151 -19 -88 10 -175 75 -225 31 -23 49 -28 109 -31 83 -5 139 17 174 67 34 47 24 55 -21 17 -36 -31 -49 -36 -91 -36 -88 0 -156 68 -157 158 l0 32 146 0 147 0 -6 46 c-5 52 -29 89 -77 122 -44 29 -138 30 -193 1z m146 -27 c18 -19 29 -44 33 -75 l7 -47 -102 0 -101 0 0 25 c0 33 26 85 54 107 33 27 78 23 109 -10z"/> <path d="M1518 800 c-4 -14 -12 -54 -18 -90 -16 -91 -62 -203 -114 -283 -25 -38 -42 -67 -38 -65 85 39 110 59 130 105 41 98 53 157 50 259 -2 58 -6 89 -10 74z"/> <path d="M1409 332 c-14 -9 -54 -38 -87 -63 -104 -79 -207 -119 -309 -119 -72 0 -74 15 -6 35 106 29 142 46 173 81 58 67 32 82 -66 38 -49 -22 -80 -28 -189 -34 -137 -7 -173 -17 -247 -68 -67 -45 -128 -64 -192 -60 -49 3 -54 1 -39 -11 34 -26 178 -89 243 -107 47 -13 102 -18 200 -18 126 0 140 2 215 31 90 33 147 67 218 127 45 38 157 166 157 180 0 13 -46 5 -71 -12z"/> <path d="M2566 247 c-28 -20 -18 -69 17 -81 20 -7 30 -6 40 3 10 11 8 12 -11 6 -27 -8 -52 9 -52 36 0 22 26 38 54 32 17 -4 18 -3 6 6 -20 14 -33 14 -54 -2z"/> <path d="M2847 253 c-4 -3 -6 -27 -6 -52 1 -25 3 -38 6 -28 2 9 9 17 15 17 6 0 21 -8 32 -17 18 -15 19 -16 8 -1 -11 13 -11 20 0 37 8 13 9 24 3 30 -15 13 -50 22 -58 14z m48 -34 c-9 -14 -45 -11 -45 4 0 8 3 17 6 20 10 9 46 -12 39 -24z"/> <path d="M2982 251 c-8 -5 -12 -23 -10 -47 3 -37 5 -39 38 -40 26 -1 28 -1 8 3 -32 5 -38 33 -8 33 11 0 20 5 20 10 0 6 -9 10 -20 10 -11 0 -20 5 -20 10 0 6 9 10 20 10 11 0 20 5 20 10 0 12 -30 13 -48 1z"/> <path d="M3320 242 c-18 -14 -21 -25 -16 -45 8 -35 49 -46 76 -22 25 23 25 40 0 65 -25 25 -32 25 -60 2z m54 -15 c8 -12 8 -22 0 -34 -16 -26 -41 -27 -54 -3 -9 18 -8 25 6 41 20 22 33 21 48 -4z"/> <path d="M3464 221 c2 -80 70 -85 72 -5 1 31 1 33 -3 7 -9 -69 -58 -65 -66 5 -4 32 -4 31 -3 -7z"/> <path d="M3698 249 c-28 -16 -23 -67 6 -80 17 -8 29 -8 42 0 17 11 17 11 -4 6 -27 -8 -52 10 -52 36 0 22 26 38 54 32 17 -4 18 -3 6 6 -19 13 -30 13 -52 0z"/> <path d="M3836 212 c-14 -29 -22 -52 -16 -52 5 0 10 5 10 10 0 15 57 12 63 -2 4 -9 6 -8 6 3 1 8 -7 33 -18 54 l-19 39 -26 -52z m37 4 c6 -16 -2 -28 -14 -20 -12 7 -11 34 0 34 5 0 11 -6 14 -14z"/> <path d="M4193 248 c-2 -5 2 -8 10 -8 11 0 14 -10 13 -36 -1 -20 2 -38 6 -40 5 -3 8 13 8 35 0 23 5 41 10 41 6 0 10 4 10 9 0 11 -50 9 -57 -1z"/> <path d="M4333 253 c-8 -3 -13 -22 -12 -51 0 -42 2 -44 11 -24 l11 22 25 -22 25 -23 -12 23 c-8 16 -9 22 -1 22 6 0 10 10 8 21 -3 22 -33 39 -55 32z m45 -25 c-7 -20 -48 -23 -48 -4 0 11 9 16 26 16 16 0 24 -5 22 -12z"/> <path d="M4613 253 c-23 -9 -15 -42 12 -49 31 -8 27 -29 -4 -28 -13 0 -18 -3 -12 -9 15 -15 46 -3 49 20 3 17 -3 24 -23 29 -32 8 -27 30 6 26 19 -2 21 -1 9 7 -16 12 -19 12 -37 4z"/> <path d="M4740 249 c-16 -4 -19 -7 -7 -8 13 -1 17 -11 18 -43 l2 -43 7 50 c4 28 7 50 6 51 -1 0 -12 -3 -26 -7z"/> <path d="M2705 210 c-10 -22 -15 -43 -12 -47 4 -3 7 -1 7 5 0 16 53 15 69 0 7 -7 4 7 -7 31 -10 25 -23 46 -29 48 -5 2 -18 -15 -28 -37z m39 5 c3 -9 0 -15 -9 -15 -8 0 -15 7 -15 15 0 8 4 15 9 15 5 0 11 -7 15 -15z"/> <path d="M3184 228 c9 -12 16 -33 16 -45 0 -13 5 -23 10 -23 6 0 10 10 10 23 0 12 7 33 16 45 18 26 7 30 -12 5 -13 -17 -15 -17 -25 0 -5 9 -15 17 -20 17 -6 0 -3 -10 5 -22z"/> <path d="M3972 203 c1 -37 2 -40 5 -15 2 17 6 32 9 32 2 0 18 -15 34 -32 l29 -33 -1 50 c-1 45 -1 47 -7 15 l-6 -35 -24 33 c-14 17 -28 32 -33 32 -4 0 -7 -21 -6 -47z"/> <path d="M4456 213 c4 -46 16 -57 48 -49 23 6 26 11 25 49 l-2 42 -6 -40 c-5 -31 -10 -40 -26 -40 -16 0 -21 8 -23 38 -2 20 -7 37 -12 37 -4 0 -6 -16 -4 -37z"/> <path d="M1978 203 c83 -2 221 -2 305 0 83 1 15 3 -153 3 -168 0 -236 -2 -152 -3z"/> <path d="M5043 203 c81 -2 213 -2 295 0 81 1 14 3 -148 3 -162 0 -229 -2 -147 -3z"/> </g> </svg>